<svg height="512pt" viewBox="-137 0 512 512" width="512pt" xmlns="http://www.w3.org/2000/svg"><path d="m128 55.980469v-19.410157h-18.285156v19.410157c6.035156-1.207031 12.25-1.207031 18.285156 0zm0 0"/><path d="m91.429688 100.570312c.003906 6.03125 2.007812 11.886719 5.703124 16.648438 5.152344 6.777344 13.167969 10.761719 21.675782 10.777344 8.511718.015625 16.542968-3.9375 21.71875-10.691406 3.722656-4.785157 5.75-10.671876 5.757812-16.734376.03125-2.25-.257812-4.492187-.851562-6.664062-3.410156-13.378906-16.234375-22.136719-29.9375-20.445312-13.703125 1.691406-24.011719 13.304687-24.066406 27.109374zm18.285156 0c0-5.046874 4.09375-9.140624 9.140625-9.140624 5.050781 0 9.144531 4.09375 9.144531 9.140624v9.144532c0 5.050781-4.09375 9.140625-9.144531 9.140625-5.046875 0-9.140625-4.089844-9.140625-9.140625zm0 0"/><path d="m82.285156 301.714844h73.144532c5.046874 0 9.140624 4.09375 9.140624 9.140625v18.289062c0 5.046875-4.09375 9.140625-9.140624 9.140625h-73.144532c-5.050781 0-9.140625-4.09375-9.140625-9.140625v-18.289062c0-5.046875 4.089844-9.140625 9.140625-9.140625zm0 0"/><path d="m146.285156 64.3125c6.210938 4.675781 11.128906 10.863281 14.28125 17.972656h22.289063c5.050781 0 9.144531-4.09375 9.144531-9.140625 0-5.050781-4.09375-9.144531-9.144531-9.144531h-36.570313zm0 0"/><path d="m146.285156 0h-54.855468c-5.050782 0-9.144532 4.09375-9.144532 9.144531 0 5.046875 4.09375 9.140625 9.144532 9.140625h54.855468c5.050782 0 9.144532-4.09375 9.144532-9.140625 0-5.050781-4.09375-9.144531-9.144532-9.144531zm0 0"/><path d="m0 512h237.734375l-.019531-18.285156h-237.714844zm0 0"/><path d="m21.476562 203.417969c-2.132812 8.214843-3.203124 16.667969-3.191406 25.152343v246.859376h201.144532v-246.859376c.015624-43.21875-27.59375-81.609374-68.574219-95.339843-.136719.144531-.308594.238281-.457031.375-1.914063 1.875-3.996094 3.574219-6.214844 5.074219l-.203125.15625c-2.214844 1.433593-4.550781 2.671874-6.984375 3.703124-.421875.171876-.832032.363282-1.261719.527344-2.390625.941406-4.855469 1.679688-7.367187 2.203125-.449219.09375-.914063.15625-1.355469.230469-2.6875.503906-5.417969.765625-8.15625.785156-2.726563-.023437-5.445313-.28125-8.125-.777344-.457031-.082031-.914063-.144531-1.371094-.238281-2.496094-.523437-4.945313-1.257812-7.316406-2.191406l-1.335938-.570313c-2.394531-1.015624-4.699219-2.238281-6.882812-3.65625-.136719-.089843-.257813-.199218-.394531-.292968-2.109376-1.4375-4.09375-3.054688-5.921876-4.835938-.195312-.183594-.429687-.308594-.613281-.503906-32.300781 10.792969-56.929687 37.222656-65.417969 70.199219zm33.378907 16.011719c0-15.148438 12.28125-27.429688 27.429687-27.429688 5.050782 0 9.144532 4.09375 9.144532 9.144531 0 5.046875-4.09375 9.140625-9.144532 9.140625-5.050781 0-9.140625 4.09375-9.140625 9.144532v18.285156c0 5.050781 4.089844 9.140625 9.140625 9.140625h18.285156c5.050782 0 9.144532-4.089844 9.144532-9.140625v-18.285156c0-15.148438 12.28125-27.429688 27.429687-27.429688h18.285157c15.148437 0 27.425781 12.28125 27.425781 27.429688v18.285156c0 15.148437-12.277344 27.429687-27.425781 27.429687-5.050782 0-9.144532-4.09375-9.144532-9.144531s4.09375-9.144531 9.144532-9.144531c5.046874 0 9.140624-4.089844 9.140624-9.140625v-18.285156c0-5.050782-4.09375-9.144532-9.140624-9.144532h-18.285157c-5.050781 0-9.144531 4.09375-9.144531 9.144532v18.285156c0 15.148437-12.28125 27.429687-27.429688 27.429687h-18.285156c-15.148437 0-27.429687-12.28125-27.429687-27.429687zm0 91.425781c0-15.148438 12.28125-27.425781 27.429687-27.425781h73.144532c15.148437 0 27.425781 12.277343 27.425781 27.425781v18.289062c0 15.148438-12.277344 27.425781-27.425781 27.425781h-73.144532c-15.148437 0-27.429687-12.277343-27.429687-27.425781zm9.144531 64h105.144531c6.21875-.027344 11.679688 4.136719 13.300781 10.144531 1.621094 6.007812-1.007812 12.351562-6.398437 15.457031-.285156.15625-.578125.3125-.871094.449219l-85.082031 37.949219h83.621094c5.050781 0 9.140625 4.09375 9.140625 9.144531s-4.089844 9.144531-9.140625 9.144531h-105.144532c-6.21875.027344-11.679687-4.136719-13.300781-10.144531-1.621093-6.007812 1.007813-12.351562 6.398438-15.457031.285156-.15625.578125-.3125.914062-.449219l85.039063-37.949219h-83.621094c-5.050781 0-9.144531-4.09375-9.144531-9.144531s4.09375-9.144531 9.144531-9.144531zm0 0"/></svg>